<svg width="1336" height="454" viewBox="0 0 1336 454" fill="none" xmlns="http://www.w3.org/2000/svg">
<g clip-path="url(#clip0_12_38)">
<path d="M271.8 295C274.2 296.8 275.4 299.7 275.4 303.7C275.4 307.7 274.1 312.1 271.5 316.9C268.9 321.5 265.6 325.4 261.6 328.6C257.6 331.6 253.7 333.1 249.9 333.1C241.5 333.1 236.1 325.4 233.7 310C232.9 304.4 232.5 298.1 232.5 291.1C232.5 287.5 232.7 281.9 233.1 274.3L233.4 257.5C233.4 248.7 233.6 235.5 234 217.9C234.6 200.1 234.9 182.4 234.9 164.8C229.9 178.2 223.6 196.6 216 220C213.8 226.8 211.6 232.4 209.4 236.8C207.2 241.2 204 245.1 199.8 248.5C195.8 251.9 191.8 253.6 187.8 253.6C180.2 253.6 173.9 248.5 168.9 238.3C163.9 228.1 159.6 216.6 156 203.8L153.3 226C150.7 246 148.3 262 146.1 274C144.1 286 141.1 298 137.1 310C134.1 319 130.6 326.7 126.6 333.1C122.8 339.3 117.8 342.4 111.6 342.4C104.6 342.4 101.1 338.8 101.1 331.6C101.1 326.6 102.6 320.9 105.6 314.5C105.4 314.9 105.2 315.3 105 315.7C105 315.9 104.9 316 104.7 316L106.5 310.3C108.3 304.3 109.9 297.2 111.3 289C114.3 273.8 117.1 256.7 119.7 237.7L126.9 185.2C129.1 166.4 131.5 148.3 134.1 130.9C135.5 120.7 137 112.7 138.6 106.9C140.4 100.9 143.6 95.2 148.2 89.8C150.4 87.2 152.9 85.1 155.7 83.5C158.7 81.9 161.5 81.1 164.1 81.1C168.5 81.1 171.8 83.1 174 87.1C175.6 90.1 176.6 95 177 101.8L177.9 109C179.3 116.4 181.1 124.5 183.3 133.3C188.7 154.9 193.6 171.5 198 183.1C199.6 178.3 200.6 175.4 201 174.4C206.6 158 211.6 144.4 216 133.6C220.6 122.8 226.1 112.8 232.5 103.6C235.5 99.4 238.9 95.8 242.7 92.8C246.5 89.6 250.3 88 254.1 88C258.3 88 261.3 89.5 263.1 92.5C265.1 95.3 266.3 98.2 266.7 101.2C267.3 104 267.9 108.8 268.5 115.6C269.3 124.6 269.7 135 269.7 146.8C269.7 155.4 269.3 168.5 268.5 186.1C268.3 189.7 268.1 194.2 267.9 199.6C267.7 205 267.6 211.3 267.6 218.5L267.3 238.9C267.3 245.5 267.5 255.2 267.9 268L267.6 277.6C267.6 286.8 269 292.6 271.8 295ZM365.238 262.3C369.838 251.5 372.138 240.4 372.138 229C372.138 220 370.538 211.8 367.338 204.4C364.338 196.8 359.538 190.6 352.938 185.8C348.538 182.6 344.338 181 340.338 181C338.738 181 336.738 181.4 334.338 182.2C336.138 183 337.038 184.4 337.038 186.4C337.038 187.6 336.638 189 335.838 190.6C331.238 199.4 327.638 209 325.038 219.4C322.438 229.6 321.138 239.9 321.138 250.3C321.138 262.3 322.938 273.7 326.538 284.5C328.938 290.5 331.438 295.2 334.038 298.6C335.238 300 336.438 301 337.638 301.6C343.438 297.6 348.638 292 353.238 284.8C358.038 277.6 362.038 270.1 365.238 262.3ZM361.038 157C370.838 159 379.238 163.3 386.238 169.9C393.238 176.5 398.538 184.5 402.138 193.9C405.738 203.1 407.538 212.7 407.538 222.7C407.538 234.5 405.238 246.6 400.638 259C396.038 271.4 389.738 282.8 381.738 293.2C373.738 303.6 364.838 311.8 355.038 317.8C345.838 323.4 336.838 326.2 328.038 326.2C319.238 326.2 311.538 323.5 304.938 318.1C298.338 312.7 293.538 304.9 290.538 294.7C287.138 284.3 285.438 272.6 285.438 259.6C285.438 251.8 286.038 244.2 287.238 236.8C285.838 237.2 283.738 237.4 280.938 237.4C274.138 237.4 270.738 235.1 270.738 230.5C270.738 228.9 270.938 227.6 271.338 226.6C278.138 207.6 288.338 191.1 301.938 177.1C315.738 162.9 331.538 155.8 349.338 155.8C351.938 155.8 355.838 156.2 361.038 157ZM475.507 263.8C475.507 260.8 474.607 258 472.807 255.4C471.007 252.6 468.607 250.4 465.607 248.8C461.807 246.8 457.607 245.8 453.007 245.8C451.007 245.8 447.807 246.2 443.407 247C442.007 262 441.007 278.9 440.407 297.7C450.207 292.9 458.507 287.5 465.307 281.5C472.107 275.3 475.507 269.4 475.507 263.8ZM489.307 225.7C495.707 228.1 500.907 232 504.907 237.4C509.107 242.6 511.207 248.4 511.207 254.8C511.207 258.8 510.407 262.7 508.807 266.5C505.207 274.7 499.407 282.2 491.407 289C483.407 295.8 473.907 302.4 462.907 308.8C439.507 322.6 418.907 329.9 401.107 330.7C397.907 330.9 395.207 330.2 393.007 328.6C390.807 327 389.707 324.9 389.707 322.3C389.707 319.3 390.907 316.6 393.307 314.2C395.707 311.8 398.807 309.8 402.607 308.2V307.3C402.607 267.9 407.007 228.2 415.807 188.2C416.607 184.2 420.107 180.7 426.307 177.7C432.507 174.5 438.407 172.9 444.007 172.9C447.207 172.9 449.607 173.6 451.207 175C453.007 176.2 453.607 178.1 453.007 180.7C450.807 190.1 448.907 200.4 447.307 211.6C454.707 207.6 460.807 202.6 465.607 196.6C470.607 190.6 473.107 184.2 473.107 177.4C473.107 168 466.207 163.3 452.407 163.3C444.807 163.3 437.707 164.5 431.107 166.9C426.907 168.3 423.207 169 420.007 169C413.807 169 410.707 166.7 410.707 162.1C410.707 157.9 414.307 153.9 421.507 150.1C427.707 146.9 435.207 144.3 444.007 142.3C452.807 140.1 461.407 139 469.807 139C481.407 139 490.707 141.4 497.707 146.2C504.907 150.8 508.507 158.3 508.507 168.7C508.507 178.5 505.107 188.1 498.307 197.5C491.507 206.7 482.807 214.9 472.207 222.1C478.207 222.5 483.907 223.7 489.307 225.7ZM508.261 165.1C508.461 161.1 511.361 157.6 516.961 154.6C522.561 151.4 528.161 149.8 533.761 149.8C536.961 149.8 539.561 150.5 541.561 151.9C543.561 153.1 544.461 155.1 544.261 157.9L535.561 320.8C535.361 325 532.461 328.7 526.861 331.9C521.261 334.9 515.661 336.4 510.061 336.4C502.661 336.4 499.061 333.5 499.261 327.7L508.261 165.1ZM507.661 125.5C507.261 128.3 507.961 130.4 509.761 131.8C511.761 133.2 514.361 133.9 517.561 133.9C522.961 133.9 528.461 132.4 534.061 129.4C539.661 126.4 542.761 122.8 543.361 118.6C544.961 108.6 546.061 101.1 546.661 96.1C547.461 91.1 544.361 88.6 537.361 88.6C531.961 88.6 526.361 90.1 520.561 93.1C514.761 96.1 511.661 99.5 511.261 103.3L507.661 125.5ZM565.613 88.6C566.013 84.8 569.213 81.4 575.213 78.4C581.213 75.2 586.913 73.6 592.313 73.6C598.713 73.6 601.813 76 601.613 80.8C598.413 116.6 593.113 166 585.713 229C580.913 272 577.813 299.9 576.413 312.7C576.013 316.9 572.813 320.7 566.813 324.1C561.013 327.3 555.313 328.9 549.713 328.9C541.913 328.9 538.313 326 538.913 320.2C545.913 251.4 554.813 174.2 565.613 88.6Z" fill="#0A0E27"/>
<path d="M716.6 258.1C720 283.1 722.5 300.6 724.1 310.6C724.9 315.6 722.7 320 717.5 323.8C712.3 327.6 706.8 329.5 701 329.5C697.6 329.5 694.8 328.8 692.6 327.4C690.4 325.8 689.1 323.4 688.7 320.2L686.3 300.7C683.5 278.7 681.2 262.2 679.4 251.2C678.4 244.8 677 239.5 675.2 235.3C673.4 230.9 670.5 227.6 666.5 225.4C663.9 224.2 660.9 223.6 657.5 223.6C653.3 223.6 648.6 224.3 643.4 225.7C639.8 255.7 633.9 286.4 625.7 317.8C624.7 322 621.1 325.7 614.9 328.9C608.9 331.9 603.1 333.4 597.5 333.4C593.9 333.4 591.2 332.8 589.4 331.6C587.6 330.2 587.1 328.1 587.9 325.3C596.7 293.7 603 262.1 606.8 230.5C602.8 230.5 599.3 229.8 596.3 228.4C593.3 226.8 591.8 224.8 591.8 222.4C591.8 219.6 593.8 216.8 597.8 214L609.5 205.6C611.1 187.8 611.9 167.6 611.9 145C611.9 132.2 611.6 119.4 611 106.6C610.8 102.6 613.4 99 618.8 95.8C624.2 92.6 629.8 91 635.6 91C638.8 91 641.4 91.7 643.4 93.1C645.6 94.3 646.8 96.3 647 99.1C647.8 112.7 648.2 127.8 648.2 144.4C648.2 158.8 648 169.5 647.6 176.5C654.8 170.1 661.8 163.4 668.6 156.4L677.6 147.7C680.4 145.1 683.6 143 687.2 141.4C690.8 139.6 694.4 138.7 698 138.7C700.2 138.7 702.6 139.3 705.2 140.5C707.8 141.5 709.1 143 709.1 145C709.1 146.2 708.7 147.3 707.9 148.3C695.7 165.5 677.9 183.2 654.5 201.4C661.1 200 667 199.3 672.2 199.3C686.8 199.3 697.7 204.1 704.9 213.7C708.1 217.9 710.3 222.5 711.5 227.5C712.9 232.3 713.9 237.1 714.5 241.9C715.1 246.7 715.5 250 715.7 251.8L716.6 258.1ZM803.141 262.3C807.741 251.5 810.041 240.4 810.041 229C810.041 220 808.441 211.8 805.241 204.4C802.241 196.8 797.441 190.6 790.841 185.8C786.441 182.6 782.241 181 778.241 181C776.641 181 774.641 181.4 772.241 182.2C774.041 183 774.941 184.4 774.941 186.4C774.941 187.6 774.541 189 773.741 190.6C769.141 199.4 765.541 209 762.941 219.4C760.341 229.6 759.041 239.9 759.041 250.3C759.041 262.3 760.841 273.7 764.441 284.5C766.841 290.5 769.341 295.2 771.941 298.6C773.141 300 774.341 301 775.541 301.6C781.341 297.6 786.541 292 791.141 284.8C795.941 277.6 799.941 270.1 803.141 262.3ZM798.941 157C808.741 159 817.141 163.3 824.141 169.9C831.141 176.5 836.441 184.5 840.041 193.9C843.641 203.1 845.441 212.7 845.441 222.7C845.441 234.5 843.141 246.6 838.541 259C833.941 271.4 827.641 282.8 819.641 293.2C811.641 303.6 802.741 311.8 792.941 317.8C783.741 323.4 774.741 326.2 765.941 326.2C757.141 326.2 749.441 323.5 742.841 318.1C736.241 312.7 731.441 304.9 728.441 294.7C725.041 284.3 723.341 272.6 723.341 259.6C723.341 251.8 723.941 244.2 725.141 236.8C723.741 237.2 721.641 237.4 718.841 237.4C712.041 237.4 708.641 235.1 708.641 230.5C708.641 228.9 708.841 227.6 709.241 226.6C716.041 207.6 726.241 191.1 739.841 177.1C753.641 162.9 769.441 155.8 787.241 155.8C789.841 155.8 793.741 156.2 798.941 157ZM865.409 88.6C865.809 84.8 869.009 81.4 875.009 78.4C881.009 75.2 886.709 73.6 892.109 73.6C898.509 73.6 901.609 76 901.409 80.8C898.209 116.6 892.909 166 885.509 229C880.709 272 877.609 299.9 876.209 312.7C875.809 316.9 872.609 320.7 866.609 324.1C860.809 327.3 855.109 328.9 849.509 328.9C841.709 328.9 838.109 326 838.709 320.2C845.709 251.4 854.609 174.2 865.409 88.6ZM914.687 88.6C915.087 84.8 918.287 81.4 924.287 78.4C930.287 75.2 935.987 73.6 941.387 73.6C947.787 73.6 950.887 76 950.687 80.8C947.487 116.6 942.187 166 934.787 229C929.987 272 926.887 299.9 925.487 312.7C925.087 316.9 921.887 320.7 915.887 324.1C910.087 327.3 904.387 328.9 898.787 328.9C890.987 328.9 887.387 326 887.987 320.2C894.987 251.4 903.887 174.2 914.687 88.6ZM1059.06 294.7C1062.06 295.7 1063.56 297.5 1063.56 300.1C1063.56 303.3 1061.66 306.8 1057.86 310.6C1053.66 314.8 1048.26 316.9 1041.66 316.9C1038.46 316.9 1035.76 316.5 1033.56 315.7C1022.96 312.3 1013.36 310.6 1004.76 310.6C989.764 310.6 974.464 315.4 958.864 325C956.264 326.8 953.064 328.3 949.264 329.5C945.664 330.5 942.264 331 939.064 331C936.064 331 933.664 330.5 931.864 329.5C930.064 328.3 929.164 326.5 929.164 324.1C929.164 322.7 929.364 321.5 929.764 320.5C935.564 304.3 940.164 289.7 943.564 276.7C947.164 263.7 949.564 250.5 950.764 237.1C952.564 219.1 953.464 205.9 953.464 197.5C953.464 175.3 949.164 158.3 940.564 146.5C939.564 145.3 939.064 143.7 939.064 141.7C939.064 137.7 941.864 134 947.464 130.6C953.064 127 958.564 125.2 963.964 125.2C967.564 125.2 970.164 126 971.764 127.6C974.364 128.6 976.064 130.2 976.864 132.4C981.864 145.6 988.764 156.8 997.564 166C1006.36 175 1016.76 179.5 1028.76 179.5C1030.96 179.5 1034.26 179.1 1038.66 178.3C1041.46 177.9 1043.26 177.7 1044.06 177.7C1047.46 177.7 1049.96 178.5 1051.56 180.1C1053.36 181.5 1054.26 183.5 1054.26 186.1C1054.26 188.9 1053.06 191.7 1050.66 194.5C1048.46 197.3 1045.46 199.3 1041.66 200.5C1033.46 203.3 1025.26 204.7 1017.06 204.7C1007.26 204.7 997.864 202.7 988.864 198.7C988.464 209.9 987.964 218.3 987.364 223.9L985.264 242.8C993.064 241.4 1000.86 240.2 1008.66 239.2L1012.86 238.9C1020.86 238.9 1024.86 241.6 1024.86 247C1024.86 250.6 1022.86 253.8 1018.86 256.6C1014.86 259.4 1010.76 261.2 1006.56 262C1000.36 263.2 991.864 264.5 981.064 265.9C978.864 275.7 976.464 284.9 973.864 293.5C987.064 288.7 1000.46 286.3 1014.06 286.3C1029.06 286.3 1044.06 289.1 1059.06 294.7ZM1166.6 155.2C1161.8 191.6 1159.4 225.9 1159.4 258.1C1159.4 273.7 1160 289.5 1161.2 305.5C1161.6 306.7 1161.8 307.7 1161.8 308.5C1161.8 309.1 1161.6 310 1161.2 311.2C1161.2 311.4 1161.1 311.5 1160.9 311.5V312.1C1159.7 315.5 1156.9 318.5 1152.5 321.1C1148.1 323.5 1143.4 324.9 1138.4 325.3C1130.4 326.1 1125.6 324 1124 319C1117 300.2 1105.9 274.2 1090.7 241L1087.1 232.6C1085.5 257.6 1084.5 284.3 1084.1 312.7C1084.1 316.9 1081.3 320.7 1075.7 324.1C1070.1 327.3 1064.4 328.9 1058.6 328.9C1055 328.9 1052.1 328.2 1049.9 326.8C1047.7 325.4 1046.7 323.1 1046.9 319.9C1048.1 265.5 1052 214 1058.6 165.4L1058.9 164.2C1058.5 159.8 1061.2 155.8 1067 152.2C1072.8 148.6 1078.6 146.8 1084.4 146.8C1090.4 146.8 1094.1 148.8 1095.5 152.8C1101.9 170.2 1111.4 192.6 1124 220C1125.2 201.2 1127.3 182.1 1130.3 162.7C1130.9 158.7 1134.1 155.2 1139.9 152.2C1145.7 149 1151.4 147.4 1157 147.4C1164.2 147.4 1167.4 150 1166.6 155.2Z" fill="#00CE78"/>
<rect x="185" y="42" width="15" height="14" fill="white"/>
</g>
<defs>
<clipPath id="clip0_12_38">
<rect width="1336" height="454" fill="white"/>
</clipPath>
</defs>
</svg>
